<svg width="405" height="330" viewBox="0 0 90 80" xmlns="http://www.w3.org/2000/svg" fill="none" stroke-linejoin="round" style="max-width:100%;height:auto;">
  <!-- Violin 1 (Basis, keine Verschiebung) -->
  <path fill="black" fill-opacity="0.12" stroke="black" stroke-width="1.5" d="
    M22 10 
    C15 22, 15 48, 22 58 
    C29 48, 29 22, 22 10 
    Z" />
  
  <!-- Dezente Error Bars Violin 1 -->
  <line x1="22" y1="8" x2="22" y2="62" stroke="rgba(139,0,0,0.3)" stroke-width="1" stroke-linecap="round"/>
  <line x1="19" y1="8" x2="25" y2="8" stroke="rgba(139,0,0,0.3)" stroke-width="1" stroke-linecap="round"/>
  <line x1="19" y1="62" x2="25" y2="62" stroke="rgba(139,0,0,0.3)" stroke-width="1" stroke-linecap="round"/>
  <!-- Mittelwert Violin 1 -->
  <line x1="17" y1="34" x2="27" y2="34" stroke="rgba(139,0,0,0.6)" stroke-width="2" stroke-linecap="round"/>

  <!-- Scatter Punkte Violin 1 -->
  <circle cx="21" cy="18" r="1.8" fill="black"/>
  <circle cx="23" cy="25" r="1.6" fill="black"/>
  <circle cx="22" cy="33" r="1.9" fill="black"/>
  <circle cx="24" cy="40" r="1.4" fill="black"/>
  <circle cx="20" cy="48" r="1.7" fill="black"/>
  <circle cx="22" cy="55" r="1.5" fill="black"/>

  <!-- Violin 2 (nach unten verschoben um 5) -->
  <g transform="translate(0,5)">
    <path fill="black" fill-opacity="0.12" stroke="black" stroke-width="1.5" d="
      M45 8 
      C38 22, 38 50, 45 60 
      C52 50, 52 22, 45 8 
      Z" />

    <!-- Dezente Error Bars Violin 2 -->
    <line x1="45" y1="6" x2="45" y2="64" stroke="rgba(139,0,0,0.3)" stroke-width="1" stroke-linecap="round"/>
    <line x1="42" y1="6" x2="48" y2="6" stroke="rgba(139,0,0,0.3)" stroke-width="1" stroke-linecap="round"/>
    <line x1="42" y1="64" x2="48" y2="64" stroke="rgba(139,0,0,0.3)" stroke-width="1" stroke-linecap="round"/>
    <!-- Mittelwert Violin 2 -->
    <line x1="40" y1="33" x2="50" y2="33" stroke="rgba(139,0,0,0.6)" stroke-width="2" stroke-linecap="round"/>

    <!-- Scatter Punkte Violin 2 -->
    <circle cx="44" cy="18" r="2" fill="black"/>
    <circle cx="46" cy="26" r="1.5" fill="black"/>
    <circle cx="45" cy="34" r="1.8" fill="black"/>
    <circle cx="47" cy="42" r="1.4" fill="black"/>
    <circle cx="43" cy="50" r="1.6" fill="black"/>
    <circle cx="45" cy="57" r="1.3" fill="black"/>
  </g>

  <!-- Violin 3 (nach oben verschoben um 5) -->
  <g transform="translate(0,-5)">
    <path fill="black" fill-opacity="0.12" stroke="black" stroke-width="1.5" d="
      M68 12 
      C61 24, 61 46, 68 56 
      C75 46, 75 24, 68 12 
      Z" />

    <!-- Dezente Error Bars Violin 3 -->
    <line x1="68" y1="10" x2="68" y2="60" stroke="rgba(139,0,0,0.3)" stroke-width="1" stroke-linecap="round"/>
    <line x1="65" y1="10" x2="71" y2="10" stroke="rgba(139,0,0,0.3)" stroke-width="1" stroke-linecap="round"/>
    <line x1="65" y1="60" x2="71" y2="60" stroke="rgba(139,0,0,0.3)" stroke-width="1" stroke-linecap="round"/>
    <!-- Mittelwert Violin 3 -->
    <line x1="63" y1="34" x2="73" y2="34" stroke="rgba(139,0,0,0.6)" stroke-width="2" stroke-linecap="round"/>

    <!-- Scatter Punkte Violin 3 -->
    <circle cx="67" cy="22" r="1.7" fill="black"/>
    <circle cx="69" cy="30" r="1.9" fill="black"/>
    <circle cx="68" cy="38" r="1.5" fill="black"/>
    <circle cx="70" cy="46" r="1.8" fill="black"/>
  </g>
</svg>
